<svg width="200" height="200" viewBox="0 0 200 200" fill="none" xmlns="http://www.w3.org/2000/svg">
<path fill-rule="evenodd" clip-rule="evenodd" d="M166.667 33.3333C166.667 19.5262 155.474 8.33325 141.667 8.33325H58.3334C44.5259 8.33325 33.3334 19.5262 33.3334 33.3333V166.667C33.3334 180.474 44.5259 191.667 58.3334 191.667H141.667C155.474 191.667 166.667 180.474 166.667 166.667V33.3333ZM141.667 24.9999C146.269 24.9999 150 28.7309 150 33.3333V150C150 154.602 146.269 158.333 141.667 158.333H58.3334C53.7309 158.333 50.0001 154.602 50.0001 150V33.3333C50.0001 28.7309 53.7309 24.9999 58.3334 24.9999H141.667ZM91.6667 175C91.6667 179.602 95.3976 183.333 100 183.333C104.603 183.333 108.333 179.602 108.333 175C108.333 170.397 104.603 166.667 100 166.667C95.3976 166.667 91.6667 170.397 91.6667 175Z" fill="#5A2A27"/>
</svg>
