<svg width="200" height="200" viewBox="0 0 200 200" fill="none" xmlns="http://www.w3.org/2000/svg">
<path fill-rule="evenodd" clip-rule="evenodd" d="M83.3333 8.33325C81.1232 8.33325 79.0036 9.21125 77.4407 10.774L27.4408 60.774C25.878 62.3368 25 64.4564 25 66.6666V166.667C25 180.474 36.1929 191.667 50 191.667H58.3333C62.9357 191.667 66.6667 187.936 66.6667 183.333C66.6667 178.731 62.9357 175 58.3333 175H50C45.3977 175 41.6667 171.269 41.6667 166.667V74.9999H83.3333C87.9358 74.9999 91.6667 71.2689 91.6667 66.6666V24.9999H150C154.602 24.9999 158.333 28.7309 158.333 33.3333V58.3333C158.333 62.9356 162.064 66.6666 166.667 66.6666C171.269 66.6666 175 62.9356 175 58.3333V33.3333C175 19.5262 163.807 8.33325 150 8.33325H83.3333ZM75 58.3333H53.4517L75 36.785V58.3333ZM184.344 89.2257C174.581 79.4627 158.753 79.4627 148.989 89.2257L134.991 103.224L94.1075 144.107C93.0392 145.176 92.2817 146.513 91.9158 147.979L83.5825 181.312C82.8722 184.152 83.7042 187.156 85.7742 189.226C87.8442 191.296 90.8483 192.127 93.6875 191.417L127.021 183.084C128.487 182.718 129.824 181.961 130.892 180.892L171.297 140.488L185.774 126.011C195.537 116.247 195.537 100.419 185.774 90.6558L184.344 89.2257ZM152.557 109.228L160.774 101.011C164.028 97.7566 169.305 97.7566 172.559 101.011L173.989 102.441C177.243 105.695 177.243 110.972 173.989 114.226L165.518 122.697L152.557 109.228ZM140.769 121.016L153.731 134.484L120.74 167.475L103.12 171.88L107.525 154.26L140.769 121.016Z" fill="#5A2A27"/>
</svg>
