<svg width="184" height="184" viewBox="0 0 184 184" fill="none" xmlns="http://www.w3.org/2000/svg">
<path fill-rule="evenodd" clip-rule="evenodd" d="M108.333 16.6667C108.333 22.8357 104.982 28.2219 100 31.1037V33.3333H158.333C172.141 33.3333 183.333 44.5262 183.333 58.3333V158.333C183.333 172.141 172.141 183.333 158.333 183.333H25C11.1929 183.333 0 172.141 0 158.333V58.3333C0 44.5262 11.1929 33.3333 25 33.3333H83.3333V31.1037C78.3517 28.2219 75 22.8357 75 16.6667C75 7.46193 82.4617 0 91.6667 0C100.872 0 108.333 7.46193 108.333 16.6667ZM25 50H83.3333H100H158.333C162.936 50 166.667 53.731 166.667 58.3333V158.333C166.667 162.936 162.936 166.667 158.333 166.667H25C20.3977 166.667 16.6667 162.936 16.6667 158.333V58.3333C16.6667 53.731 20.3977 50 25 50ZM116.667 95.8333C116.667 88.93 122.263 83.3333 129.167 83.3333C136.07 83.3333 141.667 88.93 141.667 95.8333C141.667 102.737 136.07 108.333 129.167 108.333C122.263 108.333 116.667 102.737 116.667 95.8333ZM129.167 66.6667C113.058 66.6667 100 79.725 100 95.8333C100 111.942 113.058 125 129.167 125C145.275 125 158.333 111.942 158.333 95.8333C158.333 79.725 145.275 66.6667 129.167 66.6667ZM54.1667 83.3333C47.2631 83.3333 41.6667 88.93 41.6667 95.8333C41.6667 102.737 47.2631 108.333 54.1667 108.333C61.0702 108.333 66.6667 102.737 66.6667 95.8333C66.6667 88.93 61.0702 83.3333 54.1667 83.3333ZM25 95.8333C25 79.725 38.0583 66.6667 54.1667 66.6667C70.275 66.6667 83.3333 79.725 83.3333 95.8333C83.3333 111.942 70.275 125 54.1667 125C38.0583 125 25 111.942 25 95.8333ZM82.4533 137.94C80.395 133.823 75.39 132.155 71.2732 134.213C67.1567 136.272 65.4882 141.277 67.5464 145.393C72.3377 154.976 83.185 158.333 91.6667 158.333C100.148 158.333 110.996 154.976 115.787 145.393C117.845 141.277 116.177 136.272 112.06 134.213C107.943 132.155 102.938 133.823 100.88 137.94C100.116 139.468 97.0733 141.667 91.6667 141.667C86.26 141.667 83.2175 139.468 82.4533 137.94Z" fill="#5A2A27"/>
</svg>
